<?xml version="1.0" encoding="UTF-8" standalone="no"?>
<!-- Generator: Adobe Illustrator 17.0.1, SVG Export Plug-In . SVG Version: 6.00 Build 0)  -->

<svg
   version="1.1"
   x="0px"
   y="0px"
   width="86px"
   height="86px"
   viewBox="0 0 86 86"
   enable-background="new 0 0 86 86"
   xml:space="preserve"
   id="svg17"
   sodipodi:docname="YaSailMusic.svg"
   inkscape:version="1.1.1 (3bf5ae0d25, 2021-09-20)"
   inkscape:export-filename="/home/neochapay/work/sfos/YaSailMusic/YaSailMusic.png"
   inkscape:export-xdpi="285.76746"
   inkscape:export-ydpi="285.76746"
   xmlns:inkscape="http://www.inkscape.org/namespaces/inkscape"
   xmlns:sodipodi="http://sodipodi.sourceforge.net/DTD/sodipodi-0.dtd"
   xmlns="http://www.w3.org/2000/svg"
   xmlns:svg="http://www.w3.org/2000/svg"><defs
   id="defs21">
	<linearGradient
   id="SVGID_1_"
   gradientUnits="userSpaceOnUse"
   x1="12.8065"
   y1="73.1935"
   x2="85.2829"
   y2="0.7171">
		<stop
   offset="0"
   style="stop-color:#fcca00;stop-opacity:1"
   id="stop3" />
		<stop
   offset="0.9951"
   style="stop-color:#f6fc00;stop-opacity:1"
   id="stop5" />
	</linearGradient>
	
	
	
</defs><sodipodi:namedview
   id="namedview19"
   pagecolor="#ffffff"
   bordercolor="#666666"
   borderopacity="1.0"
   inkscape:pageshadow="2"
   inkscape:pageopacity="0.0"
   inkscape:pagecheckerboard="0"
   showgrid="false"
   inkscape:zoom="2.8284271"
   inkscape:cx="-61.51829"
   inkscape:cy="76.897862"
   inkscape:window-width="1920"
   inkscape:window-height="1007"
   inkscape:window-x="0"
   inkscape:window-y="696"
   inkscape:window-maximized="1"
   inkscape:current-layer="svg17"><inkscape:grid
     type="xygrid"
     id="grid1618" /></sodipodi:namedview>
<g
   id="Layer_2"
   display="none">
</g>
<path
   fill="url(#SVGID_1_)"
   d="m 85.699,1.723 c 0,-0.786 -0.637,-1.423 -1.423,-1.423 0,0 -40.641,0 -41.276,0 C 19.417,0.3 0.3,19.417 0.3,43 0.3,66.582 19.417,85.7 43,85.7 66.583,85.7 85.7,66.582 85.7,43 85.7,42.364 85.699,1.723 85.699,1.723 Z"
   id="path8"
   style="fill:url(#SVGID_1_)" />
<path
   style="fill:#fc3f1d;fill-opacity:1;stroke:none;stroke-width:1px;stroke-linecap:butt;stroke-linejoin:miter;stroke-opacity:1"
   d="M 85.699,1.723 C 85.65167,0.80930628 85.069604,0.3388807 84.356043,0.30484321 L 55,0 V 35 L 65,45 V 10 l 20.686489,0.02075 z"
   id="path1774"
   sodipodi:nodetypes="cccccccc" /><circle
   style="fill:#fc3f1d;fill-opacity:1;stroke:none"
   id="path2938"
   cx="42.567474"
   cy="42.343231"
   r="22.567474" /></svg>
